<?xml version="1.0" encoding="UTF-8"?>
<svg width="101px" height="23px" viewBox="0 0 101 23" version="1.1" xmlns="http://www.w3.org/2000/svg" xmlns:xlink="http://www.w3.org/1999/xlink">
    <!-- Generator: Sketch 46.2 (44496) - http://www.bohemiancoding.com/sketch -->
    <title>Group 6</title>
    <desc>Created with Sketch.</desc>
    <defs></defs>
    <g id="Page-1" stroke="none" stroke-width="1" fill="none" fill-rule="evenodd">
        <g id="Desktop-HD-Copy" transform="translate(-677.000000, -21.000000)" fill="#FFFFFF">
            <g id="Group-6" transform="translate(497.000000, 21.000000)">
                <path d="M190.194152,18.42536 L190.194152,20 L180.158446,20 L180.158446,6.143168 L189.879224,6.143168 L189.879224,7.717808 L181.838062,7.717808 L181.838062,12.1897856 L188.094632,12.1897856 L188.094632,13.7644256 L181.838062,13.7644256 L181.838062,18.42536 L190.194152,18.42536 Z M201.687858,20 L197.929717,14.2683104 L194.171576,20 L192.219022,20 L197.068914,12.9456128 L192.638926,6.143168 L194.63347,6.143168 L198.160664,11.5599296 L201.708853,6.143168 L203.493445,6.143168 L199.021467,12.861632 L203.640411,20 L201.687858,20 Z M215.260088,7.2874064 C216.113897,8.05023581 216.540795,9.07549116 216.540795,10.3632032 C216.540795,11.6509152 216.113897,12.6761706 215.260088,13.439 C214.406279,14.2018294 213.279548,14.5832384 211.879861,14.5832384 L208.667595,14.5832384 L208.667595,20 L206.987979,20 L206.987979,6.143168 L211.879861,6.143168 C213.279548,6.143168 214.406279,6.52457699 215.260088,7.2874064 Z M214.010874,12.3472496 C214.521759,11.9063482 214.777198,11.245006 214.777198,10.3632032 C214.777198,9.48140039 214.521759,8.8200582 214.010874,8.3791568 C213.499988,7.9382554 212.705677,7.717808 211.627918,7.717808 L208.667595,7.717808 L208.667595,13.0085984 L211.627918,13.0085984 C212.705677,13.0085984 213.499988,12.788151 214.010874,12.3472496 Z M225.200149,14.2473152 L221.882907,14.2473152 L221.882907,20 L220.203291,20 L220.203291,6.143168 L225.452091,6.143168 C226.865775,6.143168 227.999505,6.50708116 228.853314,7.2349184 C229.707123,7.96275564 230.134021,8.94952017 230.134021,10.1952416 C230.134021,11.1750225 229.861086,12.0008254 229.315208,12.6726752 C228.76933,13.344525 228.020509,13.8064147 227.068722,14.0583584 L230.973829,20 L228.979285,20 L225.200149,14.2473152 Z M221.882907,12.6726752 L225.431096,12.6726752 C227.390658,12.6726752 228.370424,11.8468723 228.370424,10.1952416 C228.370424,8.54361094 227.390658,7.717808 225.431096,7.717808 L221.882907,7.717808 L221.882907,12.6726752 Z M244.609045,18.42536 L244.609045,20 L234.573339,20 L234.573339,6.143168 L244.294117,6.143168 L244.294117,7.717808 L236.252955,7.717808 L236.252955,12.1897856 L242.509525,12.1897856 L242.509525,13.7644256 L236.252955,13.7644256 L236.252955,18.42536 L244.609045,18.42536 Z" id="EXPRE"></path>
                <path d="M277.697102,6.8045168 C278.662886,7.3853869 279.408209,8.21118985 279.933091,9.2819504 C280.457974,10.352711 280.720411,11.6159095 280.720411,13.071584 C280.720411,14.5272585 280.457974,15.790457 279.933091,16.8612176 C279.408209,17.9319782 278.662886,18.7577811 277.697102,19.3386512 C276.731318,19.9195213 275.597589,20.209952 274.29588,20.209952 C272.994171,20.209952 271.860442,19.9195213 270.894658,19.3386512 C269.928874,18.7577811 269.183551,17.9319782 268.658669,16.8612176 C268.133786,15.790457 267.871349,14.5272585 267.871349,13.071584 C267.871349,11.6159095 268.133786,10.352711 268.658669,9.2819504 C269.183551,8.21118985 269.928874,7.3853869 270.894658,6.8045168 C271.860442,6.2236467 272.994171,5.933216 274.29588,5.933216 C275.597589,5.933216 276.731318,6.2236467 277.697102,6.8045168 Z M270.88416,8.9880176 C270.051346,9.97479693 269.634946,11.3359721 269.634946,13.071584 C269.634946,14.8071959 270.051346,16.1683711 270.88416,17.1551504 C271.716974,18.1419297 272.854202,18.635312 274.29588,18.635312 C275.737558,18.635312 276.874786,18.1419297 277.7076,17.1551504 C278.540414,16.1683711 278.956814,14.8071959 278.956814,13.071584 C278.956814,11.3359721 278.540414,9.97479693 277.7076,8.9880176 C276.874786,8.00123827 275.737558,7.507856 274.29588,7.507856 C272.854202,7.507856 271.716974,8.00123827 270.88416,8.9880176 Z" id="O"></path>
                <g id="noun_613993_cc" transform="translate(246.000000, 1.000000)" stroke="#7E5A61" stroke-width="1.44" fill-rule="nonzero">
                    <path d="M3.29256437,18.3920581 C2.55746856,18.8822094 2.55746856,19.6768232 3.29256437,20.1661381 C3.66011227,20.4112137 4.14181328,20.5333333 4.62351428,20.5333333 C5.10521529,20.5333333 5.5869163,20.4112137 5.9544642,20.1661381 C10.3462226,17.2369405 10.3462226,12.4717666 5.9544642,9.54340541 C3.02913413,7.59283749 3.02913413,4.41940066 5.9544642,2.46883274 C6.68956001,1.97868145 6.68956001,1.18406759 5.9544642,0.694752739 C5.21936839,0.204601452 4.02766017,0.204601452 3.2938188,0.694752739 C-1.0979396,3.62311393 -1.0979396,8.38828779 3.2938188,11.3174854 C6.21664001,13.2672169 6.21664001,16.4414902 3.29256437,18.3920581 Z M16.2354565,14.8547717 C16.2354565,16.1905595 15.4552012,17.4468858 14.0376956,18.3920581 C13.3025998,18.8813729 13.3025998,19.6768232 14.0376956,20.1661381 C14.4052435,20.4112137 14.8869445,20.5333333 15.3686455,20.5333333 C15.8503465,20.5333333 16.3320475,20.4112137 16.6995954,20.1661381 C18.8271082,18.7475432 20,16.8605444 20,14.8547717 C20,12.8481626 18.8271082,10.9620003 16.6995954,9.54340541 C13.7755198,7.59283749 13.7755198,4.41940066 16.6995954,2.46883274 C17.4346913,1.97868145 17.4346913,1.18406759 16.6995954,0.694752739 C15.9644996,0.204601452 14.7740458,0.204601452 14.03895,0.694752739 C9.64719165,3.62311393 9.64719165,8.38828779 14.03895,11.3174854 C15.4552012,12.2626577 16.2354565,13.5181476 16.2354565,14.8547717 Z" id="Shape"></path>
                </g>
            </g>
        </g>
    </g>
</svg>